<?xml version="1.0" encoding="utf-8"?>
<!-- Generator: Adobe Illustrator 18.1.1, SVG Export Plug-In . SVG Version: 6.00 Build 0)  -->
<svg version="1.1" id="Слой_1" xmlns="http://www.w3.org/2000/svg" xmlns:xlink="http://www.w3.org/1999/xlink" x="0px" y="0px"
	 viewBox="0 0 1280 800" enable-background="new 0 0 1280 800" xml:space="preserve">
<path fill="#FFFFFF" d="M259.9,74.4c101.7,0,184.2,82.5,184.2,184.3S361.6,443,259.9,443S75.7,360.5,75.7,258.7
	S158.2,74.4,259.9,74.4 M259.9,25.5c-128.5,0-233,104.6-233,233.2s104.5,233.2,233,233.2s233-104.6,233-233.2S388.4,25.5,259.9,25.5
	L259.9,25.5z"/>
<path fill="#FFFFFF" d="M423.1,214.8c0-0.4-0.1-0.8-0.3-1.2c-0.4-1.4-0.8-2.6-1.1-3.8c-0.3-1.1-1.2-1.8-2.4-1.9
	c-10.8-1.1-22.1-2.9-33.9-5.5l-1.5-0.2V201c0-8.7-0.3-17.5-1.7-26.4c-2.5-15.9-6.7-29.5-13.3-41.8c-0.7-1.3-1.4-2.6-2.4-4.2
	c-0.2-0.3-0.3-0.5-0.6-0.7c-3.7-3-7.2-5.6-10.6-7.9c-1.1-0.7-2.7-0.6-3.6,0.4c-0.9,1-0.9,2.6-0.1,3.6c4.1,4.9,7.7,10.5,10.6,16.5
	c4.3,8.8,7.5,18.5,9.6,28.9c0.8,4.2,1.7,8.7,2.1,13.1c0.7,5.1,0.9,10.2,1.1,15.4l0.1,1.9l-1.9-0.5c-6.8-1.8-13.1-3.6-19.2-5.4
	c-16-5-32.7-11.1-49.5-18.2l-1.3-0.6l25.9-59.4c0.9-2,1.8-4.1,2.7-6.1c0.6-1.4,0-3-1.4-3.6l-1.2-0.6c-0.8-0.4-1.7-0.8-2.5-1.1
	c-1.4-0.6-3,0.1-3.6,1.4l-25.7,59c-0.8,1.8-1.5,3.5-2.3,5.3l-0.6,1.4l-1.3-0.6c-22.2-10-41.9-20.4-60.1-31.7c-1.3-0.8-2.7-1.7-4-2.5
	l-1.6-1l1.4-1.3c4.1-3.6,8.1-6.8,12.2-9.8c12.6-9.2,24.7-15.6,37.1-19.5c5-1.6,9.7-2.7,14.2-3.3c2-0.3,4.2-0.5,6.6-0.7
	c1.4-0.1,2.5-1.2,2.6-2.5c0.1-1.3-0.8-2.6-2.1-2.9c-4.6-1.1-8.8-1.9-12.8-2.5c-0.3-0.1-0.7,0-1,0c-3.9,0.9-7,1.7-9.8,2.6
	c-14.4,4.5-28.2,11.9-42.2,22.4c-4.5,3.4-9,7.2-13.5,11.3l-0.8,0.8l-0.9-0.7c-7.2-5-14.3-10.3-21.1-15.9c-1.4-1.1-2.7-2.3-4-3.4
	l-1.9-1.7c-0.8-0.7-2-0.9-3-0.4c-1.1,0.5-2.2,1.1-3.3,1.7l-0.5,0.3c-0.8,0.4-1.3,1.2-1.5,2.1c-0.1,0.9,0.2,1.8,0.9,2.4
	c6.8,6.1,13.4,11.4,20,16.2c1.8,1.3,3.6,2.5,5.4,3.8l3.1,2.2l-1.2,1.2c-6.5,6.6-12.8,14-19.8,23.3c-10.8,14.5-20.3,30.6-28.2,47.9
	l-0.6,1.3l-17.5-7.6c-10.8-4.7-21.7-9.4-32.5-14.1c-1.4-0.6-3,0.1-3.6,1.4l-0.5,1.2c-0.4,0.8-0.8,1.7-1.1,2.5
	c-0.6,1.4,0.1,3,1.4,3.6l44.7,19.5c1.4,0.6,2.7,1.2,4.1,1.8l1.3,0.6l-0.5,1.3c-4.6,11.3-8.5,22.8-11.5,34.2
	c-4.3,16.3-6.9,32.5-7.8,48.1l-0.1,1.7l-1.6-0.3c-12.8-2.7-23.7-4.3-34.3-5.2c-1-0.1-1.8,0.4-2.3,1c-0.6,0.7-0.8,1.6-0.5,2.5
	c0.4,1.4,0.8,2.8,1.2,4.2c0.3,1.1,1.3,1.9,2.4,2c10.6,1,21.7,2.8,33.9,5.4l1.1,0.2l0,1.2c-0.1,6.6,0.3,13.4,1.1,20.7
	c1.9,16.6,5.8,30.8,11.8,43.6c1.4,3,3.1,6.1,5.1,9.4c0.2,0.3,0.4,0.5,0.6,0.7c3.7,3,7.2,5.6,10.6,7.9c0.4,0.3,1,0.5,1.4,0.5
	c1.7,0,2.9-1.2,2.9-2.7c0-0.8-0.4-1.6-1-2.1c-7.6-9.2-13.2-20.2-17.2-33.8c-2.2-7.3-3.5-14.9-4.5-21.4l-0.1-1.2
	c-0.7-5.4-1.2-11.4-1.4-18.6l-0.1-1.9l1.9,0.5c7.2,1.9,13.6,3.7,19.7,5.6c15.9,4.9,32.1,10.8,49.6,18.2l1.3,0.6l-0.6,1.3
	c-3.7,8.6-7.5,17.1-11.2,25.7l-17.3,39.7c-0.6,1.4,0,3,1.4,3.6l1.1,0.5c0.9,0.4,1.7,0.8,2.6,1.2c1.4,0.6,3-0.1,3.6-1.4l29.1-66.8
	l1.3,0.6c13.1,5.9,26,12.3,38.4,19c9.2,5,18,10.2,26.3,15.5l1.6,1l-1.4,1.3c-11.1,9.8-21.2,16.9-31.9,22.4
	c-11.4,5.9-21.3,9.3-31.1,10.7c-1,0.1-2,0.3-2.8,0.5l-0.6,0.1c-1.7,0.1-3.3,0.2-4.8,0.3c-1.4,0.1-2.5,1.1-2.6,2.5
	c-0.1,1.4,0.8,2.6,2.1,2.9c4.6,1.1,8.7,1.9,12.5,2.5c0.3,0.1,0.6,0,1,0c5.5-1.1,10.4-2.5,15-4.1c11.2-4,22.1-9.8,33.3-17.7
	c6.3-4.4,12.6-9.5,18.6-15.2l0.8-0.8l1,0.7c5.2,3.7,13.1,9.2,20.6,15.5c1.1,0.9,2.2,1.8,3.2,2.8l0.3,0.3c1,0.9,2,1.8,3.1,2.7
	c0.8,0.7,2,0.8,3,0.4c1.3-0.6,2.5-1.3,3.8-2c0.8-0.4,1.3-1.2,1.4-2.1c0.1-0.9-0.2-1.8-0.9-2.4c-7.7-7-16.4-14-26.7-21.2l-2-1.4
	l1.2-1.2c4-4.1,7.9-8.6,11.8-13.3c13.6-16.7,25.5-35.9,35.4-57l0.6-1.3l1.3,0.6c10.6,4.6,21.2,9.3,31.8,13.9l16.9,7.4
	c1.4,0.6,3-0.1,3.6-1.4l0.5-1.2c0.4-0.8,0.8-1.7,1.1-2.6c0.6-1.4-0.1-3-1.4-3.6c-16.2-7.1-32.4-14.2-48.8-21.2l-1.3-0.6l0.5-1.3
	c6-14.6,10.7-29.6,14.1-44.7c2.9-12.9,4.7-26,5.4-38.9l0.1-1.7l1.6,0.4c11.5,2.4,21.9,4.1,31.9,5.1l1.8-0.5c0.1,0,0.2-0.7,0.4-0.7
	c0,0,0,0,0,0c0.9,0,1.5,0.5,2,0C422.8,215.4,423.1,215.5,423.1,214.8z M171.9,212.9c7.3-15.8,15.8-30.5,25.4-43.6
	c7.3-10,14.6-18.6,22.1-26.3l0.8-0.8l1,0.6c14.8,9.5,30.5,18.5,46.7,26.5c7.6,3.8,14.6,7.1,21.4,10.1l1.3,0.6l-7.8,17.8
	c-7.7,17.7-15.5,35.5-23.2,53.3l-0.6,1.3l-1.3-0.6c-6.5-2.9-13.1-5.7-19.6-8.6l-66.9-29.1L171.9,212.9z M228.5,322.7
	c-1.2,2.8-2.5,5.6-3.7,8.4l-0.6,1.3l-1.3-0.6c-11.4-4.9-23.5-9.5-35.8-13.7c-12.4-4.3-25.2-8.1-37.8-11.2l-1.1-0.3l0.1-1.2
	c0.2-3.9,0.5-7.8,0.8-11.5c1.9-18.2,6.1-36.9,12.5-55.6c1.5-4.2,3.1-8.4,4.7-12.5l1.2-3l1.4,0.6c11.3,4.9,22.6,9.9,33.9,14.8
	l25.7,11.2c8.5,3.7,17,7.4,25.7,11.1l1.3,0.6l-0.6,1.3c-5.8,13.3-11.7,26.7-17.5,40L228.5,322.7z M351.3,304.6
	c-3.9,8.4-7.8,15.9-12,23c-7,11.9-14.7,23-22.8,32.7c-3.7,4.5-7.6,8.8-11.9,13.2l-0.8,0.9l-1-0.6c-16.1-10.5-33.5-20.3-51.9-29.2
	c-6.3-3-11.5-5.5-16.6-7.7l-1.3-0.6l0.6-1.3c5.5-12.6,11-25.3,16.5-38l13.9-32l87.9,38.3L351.3,304.6z M375,210.8
	c-0.3,7.9-1.1,15.5-2.2,23.1c-2.6,17.6-7.2,35-14.1,53.2c-0.6,1.5-1.2,3-1.8,4.5l-1.2,2.9l-1.3-0.6c-6.6-2.9-13.1-5.7-19.7-8.6
	l-29-12.6c-12.1-5.3-24.3-10.6-36.5-15.9l-1.3-0.6l0.6-1.3c7.2-16.5,14.4-33,21.6-49.6c2.9-6.7,5.8-13.4,8.8-20.2l0.6-1.3l1.3,0.6
	c11.7,4.9,23.3,9.4,34.5,13.3c13.2,4.6,26.2,8.5,38.8,11.6l1.1,0.3L375,210.8z"/>
<path fill="#FFFFFF" d="M511.6,75.9h72l104.8,308.4L792.4,75.9h70V441h-46V225.8c0-7.4-0.3-19.8,0.1-37c0.3-17.2,0.3-35.7,0.3-55.4
	L712.4,441h-48.9l-106-307.6v11.2c0,8.9,0.9,22.6,1.4,40.8c0.5,18.3,1.4,31.7,1.4,40.3V441h-48.9V75.9z"/>
<path fill="#FFFFFF" d="M1006.1,75.9h55.7L1194.1,441H1140l-38-109.3H959L919.4,441h-50.6L1006.1,75.9z M1087.9,291.5l-56.1-161.1
	l-58.3,161.1H1087.9z"/>
<path fill="#FFFFFF" d="M1213.2,75.9h48.9V441h-48.9V75.9z"/>
<g>
</g>
<g>
</g>
<g>
</g>
<g>
</g>
<g>
</g>
<g>
</g>
<g>
</g>
<g>
</g>
<g>
</g>
<g>
</g>
<g>
</g>
<g>
</g>
<g>
</g>
<g>
</g>
<g>
</g>
</svg>
